<mxfile host="Electron" modified="2021-03-30T15:26:20.984Z" agent="5.0 (Windows NT 10.0; Win64; x64) AppleWebKit/537.36 (KHTML, like Gecko) draw.io/14.1.8 Chrome/87.0.4280.88 Electron/11.1.1 Safari/537.36" etag="f9K-PGFeQ5f3WeyvNZoW" compressed="false" version="14.1.8" type="device">
  <diagram id="DQxjqCwav8kwID2jl9Gf" name="Seite-1">
    <mxGraphModel dx="1099" dy="1860" grid="1" gridSize="10" guides="1" tooltips="1" connect="1" arrows="1" fold="1" page="1" pageScale="1" pageWidth="827" pageHeight="1169" math="0" shadow="0">
      <root>
        <mxCell id="0" />
        <mxCell id="1" parent="0" />
        <mxCell id="AmV1oALEYDHzeJOovQCH-43" value="" style="rounded=1;whiteSpace=wrap;html=1;fontSize=12;fillColor=#ffe6cc;strokeColor=#d79b00;" vertex="1" parent="1">
          <mxGeometry x="20" y="180" width="1030" height="120" as="geometry" />
        </mxCell>
        <mxCell id="AmV1oALEYDHzeJOovQCH-35" value="" style="rounded=1;whiteSpace=wrap;html=1;fontSize=12;fillColor=#dae8fc;strokeColor=#6c8ebf;" vertex="1" parent="1">
          <mxGeometry x="20" y="-10" width="1030" height="180" as="geometry" />
        </mxCell>
        <mxCell id="AmV1oALEYDHzeJOovQCH-38" value="" style="endArrow=classic;html=1;fontSize=10;entryX=0.5;entryY=0;entryDx=0;entryDy=0;fillColor=#fff2cc;strokeColor=#d6b656;" edge="1" parent="1">
          <mxGeometry width="50" height="50" relative="1" as="geometry">
            <mxPoint x="399.65999999999997" y="80" as="sourcePoint" />
            <mxPoint x="399.65999999999997" y="200" as="targetPoint" />
          </mxGeometry>
        </mxCell>
        <mxCell id="AmV1oALEYDHzeJOovQCH-39" value="" style="endArrow=classic;html=1;fontSize=10;entryX=0.5;entryY=0;entryDx=0;entryDy=0;fillColor=#fff2cc;strokeColor=#d6b656;" edge="1" parent="1">
          <mxGeometry width="50" height="50" relative="1" as="geometry">
            <mxPoint x="539.66" y="80" as="sourcePoint" />
            <mxPoint x="539.66" y="200" as="targetPoint" />
          </mxGeometry>
        </mxCell>
        <mxCell id="AmV1oALEYDHzeJOovQCH-40" value="" style="endArrow=classic;html=1;fontSize=10;entryX=0.5;entryY=0;entryDx=0;entryDy=0;fillColor=#fff2cc;strokeColor=#d6b656;" edge="1" parent="1">
          <mxGeometry width="50" height="50" relative="1" as="geometry">
            <mxPoint x="679.6599999999999" y="80" as="sourcePoint" />
            <mxPoint x="679.6599999999999" y="200" as="targetPoint" />
          </mxGeometry>
        </mxCell>
        <mxCell id="AmV1oALEYDHzeJOovQCH-41" value="" style="endArrow=classic;html=1;fontSize=10;entryX=0.5;entryY=0;entryDx=0;entryDy=0;fillColor=#fff2cc;strokeColor=#d6b656;" edge="1" parent="1">
          <mxGeometry width="50" height="50" relative="1" as="geometry">
            <mxPoint x="819.6599999999999" y="80" as="sourcePoint" />
            <mxPoint x="819.6599999999999" y="200" as="targetPoint" />
          </mxGeometry>
        </mxCell>
        <mxCell id="AmV1oALEYDHzeJOovQCH-42" value="" style="endArrow=classic;html=1;fontSize=10;entryX=0.5;entryY=0;entryDx=0;entryDy=0;fillColor=#fff2cc;strokeColor=#d6b656;" edge="1" parent="1">
          <mxGeometry width="50" height="50" relative="1" as="geometry">
            <mxPoint x="959.6599999999999" y="80" as="sourcePoint" />
            <mxPoint x="959.6599999999999" y="200" as="targetPoint" />
          </mxGeometry>
        </mxCell>
        <mxCell id="AmV1oALEYDHzeJOovQCH-36" value="" style="rounded=1;whiteSpace=wrap;html=1;fontSize=12;fillColor=#dae8fc;strokeColor=#6c8ebf;" vertex="1" parent="1">
          <mxGeometry x="20" y="310" width="1030" height="180" as="geometry" />
        </mxCell>
        <mxCell id="AmV1oALEYDHzeJOovQCH-24" value="" style="endArrow=classic;html=1;fontSize=10;entryX=0.5;entryY=0;entryDx=0;entryDy=0;fillColor=#fff2cc;strokeColor=#d6b656;" edge="1" parent="1" target="AmV1oALEYDHzeJOovQCH-19">
          <mxGeometry width="50" height="50" relative="1" as="geometry">
            <mxPoint x="260" y="80" as="sourcePoint" />
            <mxPoint x="320" y="140" as="targetPoint" />
          </mxGeometry>
        </mxCell>
        <mxCell id="AmV1oALEYDHzeJOovQCH-1" value="&lt;font style=&quot;font-size: 10px;&quot;&gt;Zeitplanung&lt;br style=&quot;font-size: 10px;&quot;&gt;Prozessplanung&lt;br style=&quot;font-size: 10px;&quot;&gt;Projektorganisation&lt;br style=&quot;font-size: 10px;&quot;&gt;Risikomanagement&lt;br style=&quot;font-size: 10px;&quot;&gt;&lt;/font&gt;&lt;div style=&quot;font-size: 10px;&quot;&gt;&lt;span style=&quot;font-size: 10px;&quot;&gt;&lt;font style=&quot;font-size: 10px;&quot;&gt;Quality Gate Struktur&lt;/font&gt;&lt;/span&gt;&lt;/div&gt;" style="shape=document;whiteSpace=wrap;html=1;boundedLbl=1;align=left;fontSize=10;verticalAlign=top;spacingLeft=5;fillColor=#fff2cc;strokeColor=#d6b656;" vertex="1" parent="1">
          <mxGeometry x="200" y="10" width="120" height="140" as="geometry" />
        </mxCell>
        <mxCell id="AmV1oALEYDHzeJOovQCH-2" value="Ist-Analyse&lt;br&gt;Anforderungsanalyse&lt;br&gt;Modellierung&lt;br&gt;Funktionalität&lt;br&gt;Nutzerberfläche&lt;br&gt;Qualitätsanforderungen&lt;br&gt;Fachkonzept" style="shape=document;whiteSpace=wrap;html=1;boundedLbl=1;align=left;fontSize=10;verticalAlign=top;spacingLeft=5;fillColor=#fff2cc;strokeColor=#d6b656;" vertex="1" parent="1">
          <mxGeometry x="340" y="10" width="120" height="140" as="geometry" />
        </mxCell>
        <mxCell id="AmV1oALEYDHzeJOovQCH-4" value="Korrektheit&lt;br&gt;Vollständigkeit&lt;br&gt;Offenheit&lt;br&gt;Konsistenz&lt;br&gt;Plausibilität&lt;br&gt;Flexibilität&lt;br&gt;Wartungsfreundlichkeit" style="shape=document;whiteSpace=wrap;html=1;boundedLbl=1;align=left;fontSize=10;verticalAlign=top;spacingLeft=5;fillColor=#fff2cc;strokeColor=#d6b656;" vertex="1" parent="1">
          <mxGeometry x="480" y="10" width="120" height="140" as="geometry" />
        </mxCell>
        <mxCell id="AmV1oALEYDHzeJOovQCH-5" value="Mean time to failure&lt;br&gt;Verfügbarkeit&lt;br&gt;Fehlerrate" style="shape=document;whiteSpace=wrap;html=1;boundedLbl=1;align=left;fontSize=10;verticalAlign=top;spacingLeft=5;fillColor=#fff2cc;strokeColor=#d6b656;" vertex="1" parent="1">
          <mxGeometry x="760" y="10" width="120" height="140" as="geometry" />
        </mxCell>
        <mxCell id="AmV1oALEYDHzeJOovQCH-6" value="Komplexität&lt;br&gt;Umfang&lt;br&gt;Kommentierung&lt;br&gt;Dokumentation" style="shape=document;whiteSpace=wrap;html=1;boundedLbl=1;align=left;fontSize=10;verticalAlign=top;spacingLeft=5;fillColor=#fff2cc;strokeColor=#d6b656;" vertex="1" parent="1">
          <mxGeometry x="620" y="10" width="120" height="140" as="geometry" />
        </mxCell>
        <mxCell id="AmV1oALEYDHzeJOovQCH-7" value="Korrektheit&lt;br&gt;Eindeutigkeit&lt;br&gt;Vollständigkeit&lt;br&gt;Konsistenz&lt;br&gt;Restriktionen" style="shape=document;whiteSpace=wrap;html=1;boundedLbl=1;align=left;fontSize=10;verticalAlign=top;spacingLeft=5;fillColor=#fff2cc;strokeColor=#d6b656;" vertex="1" parent="1">
          <mxGeometry x="340" y="330" width="120" height="140" as="geometry" />
        </mxCell>
        <mxCell id="AmV1oALEYDHzeJOovQCH-8" value="Maßnahmenplan&lt;br&gt;Installationsanleitung&lt;br&gt;Betriebshandbuch&lt;br&gt;Abnahmetest" style="shape=document;whiteSpace=wrap;html=1;boundedLbl=1;align=left;fontSize=10;verticalAlign=top;spacingLeft=5;fillColor=#fff2cc;strokeColor=#d6b656;" vertex="1" parent="1">
          <mxGeometry x="900" y="10" width="120" height="140" as="geometry" />
        </mxCell>
        <mxCell id="AmV1oALEYDHzeJOovQCH-9" value="Architektur&lt;br&gt;Techn. Anforderungen&lt;br&gt;Schnittstellen&lt;br&gt;Module&lt;br&gt;Kritikalität&lt;br&gt;Dokumentation&lt;br&gt;Testplan&lt;br&gt;Integrationsplan" style="shape=document;whiteSpace=wrap;html=1;boundedLbl=1;align=left;fontSize=10;verticalAlign=top;spacingLeft=5;fillColor=#fff2cc;strokeColor=#d6b656;" vertex="1" parent="1">
          <mxGeometry x="480" y="330" width="120" height="140" as="geometry" />
        </mxCell>
        <mxCell id="AmV1oALEYDHzeJOovQCH-10" value="Lesbarkeit&lt;br&gt;Logische Struktur&lt;br&gt;Robustheit&lt;br&gt;Durchsatz&lt;br&gt;Unit-Tests" style="shape=document;whiteSpace=wrap;html=1;boundedLbl=1;align=left;fontSize=10;verticalAlign=top;spacingLeft=5;fillColor=#fff2cc;strokeColor=#d6b656;" vertex="1" parent="1">
          <mxGeometry x="620" y="330" width="120" height="140" as="geometry" />
        </mxCell>
        <mxCell id="AmV1oALEYDHzeJOovQCH-11" value="Integrationsstrategie&lt;br&gt;Integrationsschritte&lt;br&gt;Qualitätsmerkmale&lt;br&gt;Schnittstellen&lt;br&gt;Fehlbedienung" style="shape=document;whiteSpace=wrap;html=1;boundedLbl=1;align=left;fontSize=10;verticalAlign=top;spacingLeft=5;fillColor=#fff2cc;strokeColor=#d6b656;" vertex="1" parent="1">
          <mxGeometry x="760" y="330" width="120" height="140" as="geometry" />
        </mxCell>
        <mxCell id="AmV1oALEYDHzeJOovQCH-12" value="&lt;font style=&quot;font-size: 12px&quot;&gt;Analyse&lt;/font&gt;" style="shape=step;perimeter=stepPerimeter;whiteSpace=wrap;html=1;fixedSize=1;fontSize=10;" vertex="1" parent="1">
          <mxGeometry x="200" y="200" width="120" height="80" as="geometry" />
        </mxCell>
        <mxCell id="AmV1oALEYDHzeJOovQCH-13" value="&lt;font style=&quot;font-size: 12px&quot;&gt;Spezifikation&lt;/font&gt;" style="shape=step;perimeter=stepPerimeter;whiteSpace=wrap;html=1;fixedSize=1;fontSize=10;fillColor=#d5e8d4;strokeColor=#82b366;fontStyle=1" vertex="1" parent="1">
          <mxGeometry x="330" y="200" width="140" height="80" as="geometry" />
        </mxCell>
        <mxCell id="AmV1oALEYDHzeJOovQCH-14" value="&lt;font style=&quot;font-size: 12px&quot;&gt;Entwurf&lt;/font&gt;" style="shape=step;perimeter=stepPerimeter;whiteSpace=wrap;html=1;fixedSize=1;fontSize=10;fontStyle=1;fillColor=#d5e8d4;strokeColor=#82b366;" vertex="1" parent="1">
          <mxGeometry x="470" y="200" width="140" height="80" as="geometry" />
        </mxCell>
        <mxCell id="AmV1oALEYDHzeJOovQCH-15" value="&lt;font style=&quot;font-size: 12px&quot;&gt;Codierung&lt;/font&gt;" style="shape=step;perimeter=stepPerimeter;whiteSpace=wrap;html=1;fixedSize=1;fontSize=10;fontStyle=1;fillColor=#d5e8d4;strokeColor=#82b366;" vertex="1" parent="1">
          <mxGeometry x="610" y="200" width="140" height="80" as="geometry" />
        </mxCell>
        <mxCell id="AmV1oALEYDHzeJOovQCH-16" value="&lt;font style=&quot;font-size: 12px&quot;&gt;Integration&lt;/font&gt;" style="shape=step;perimeter=stepPerimeter;whiteSpace=wrap;html=1;fixedSize=1;fontSize=10;fontStyle=1;fillColor=#d5e8d4;strokeColor=#82b366;" vertex="1" parent="1">
          <mxGeometry x="750" y="200" width="140" height="80" as="geometry" />
        </mxCell>
        <mxCell id="AmV1oALEYDHzeJOovQCH-17" value="&lt;font style=&quot;font-size: 12px&quot;&gt;Abnahme&lt;/font&gt;" style="shape=step;perimeter=stepPerimeter;whiteSpace=wrap;html=1;fixedSize=1;fontSize=10;" vertex="1" parent="1">
          <mxGeometry x="900" y="200" width="120" height="80" as="geometry" />
        </mxCell>
        <mxCell id="AmV1oALEYDHzeJOovQCH-18" value="&lt;font style=&quot;font-size: 12px&quot;&gt;Abnahme&lt;/font&gt;" style="shape=step;perimeter=stepPerimeter;whiteSpace=wrap;html=1;fixedSize=1;fontSize=10;fontStyle=1;fillColor=#d5e8d4;strokeColor=#82b366;" vertex="1" parent="1">
          <mxGeometry x="890" y="200" width="140" height="80" as="geometry" />
        </mxCell>
        <mxCell id="AmV1oALEYDHzeJOovQCH-19" value="&lt;font style=&quot;font-size: 12px&quot;&gt;Analyse&lt;/font&gt;" style="shape=step;perimeter=stepPerimeter;whiteSpace=wrap;html=1;fixedSize=1;fontSize=10;fontStyle=1;fillColor=#d5e8d4;strokeColor=#82b366;" vertex="1" parent="1">
          <mxGeometry x="190" y="200" width="140" height="80" as="geometry" />
        </mxCell>
        <mxCell id="AmV1oALEYDHzeJOovQCH-20" value="" style="endArrow=classic;html=1;fontSize=10;exitX=0.5;exitY=0;exitDx=0;exitDy=0;entryX=0.5;entryY=1;entryDx=0;entryDy=0;fillColor=#fff2cc;strokeColor=#d6b656;" edge="1" parent="1" source="AmV1oALEYDHzeJOovQCH-7" target="AmV1oALEYDHzeJOovQCH-13">
          <mxGeometry width="50" height="50" relative="1" as="geometry">
            <mxPoint x="270" y="390" as="sourcePoint" />
            <mxPoint x="320" y="340" as="targetPoint" />
          </mxGeometry>
        </mxCell>
        <mxCell id="AmV1oALEYDHzeJOovQCH-21" value="" style="endArrow=classic;html=1;fontSize=10;exitX=0.5;exitY=0;exitDx=0;exitDy=0;entryX=0.5;entryY=1;entryDx=0;entryDy=0;fillColor=#fff2cc;strokeColor=#d6b656;" edge="1" parent="1" source="AmV1oALEYDHzeJOovQCH-9" target="AmV1oALEYDHzeJOovQCH-14">
          <mxGeometry width="50" height="50" relative="1" as="geometry">
            <mxPoint x="220" y="420" as="sourcePoint" />
            <mxPoint x="270" y="370" as="targetPoint" />
          </mxGeometry>
        </mxCell>
        <mxCell id="AmV1oALEYDHzeJOovQCH-22" value="" style="endArrow=classic;html=1;fontSize=10;exitX=0.5;exitY=0;exitDx=0;exitDy=0;entryX=0.5;entryY=1;entryDx=0;entryDy=0;fillColor=#fff2cc;strokeColor=#d6b656;" edge="1" parent="1" source="AmV1oALEYDHzeJOovQCH-10" target="AmV1oALEYDHzeJOovQCH-15">
          <mxGeometry width="50" height="50" relative="1" as="geometry">
            <mxPoint x="660" y="570" as="sourcePoint" />
            <mxPoint x="710" y="520" as="targetPoint" />
          </mxGeometry>
        </mxCell>
        <mxCell id="AmV1oALEYDHzeJOovQCH-23" value="" style="endArrow=classic;html=1;fontSize=10;exitX=0.5;exitY=0;exitDx=0;exitDy=0;entryX=0.5;entryY=1;entryDx=0;entryDy=0;fillColor=#fff2cc;strokeColor=#d6b656;" edge="1" parent="1" source="AmV1oALEYDHzeJOovQCH-11" target="AmV1oALEYDHzeJOovQCH-16">
          <mxGeometry width="50" height="50" relative="1" as="geometry">
            <mxPoint x="1250" y="430" as="sourcePoint" />
            <mxPoint x="1300" y="380" as="targetPoint" />
          </mxGeometry>
        </mxCell>
        <mxCell id="AmV1oALEYDHzeJOovQCH-32" value="Externe&lt;br style=&quot;font-size: 12px;&quot;&gt;Quality&lt;br style=&quot;font-size: 12px;&quot;&gt;Gates" style="rounded=1;whiteSpace=wrap;html=1;fontSize=12;fontStyle=1;fillColor=#e1d5e7;strokeColor=#9673a6;dashed=1;" vertex="1" parent="1">
          <mxGeometry x="40" y="10" width="120" height="140" as="geometry" />
        </mxCell>
        <mxCell id="AmV1oALEYDHzeJOovQCH-33" value="Interne&lt;br style=&quot;font-size: 12px;&quot;&gt;Quality&lt;br style=&quot;font-size: 12px;&quot;&gt;Gates" style="rounded=1;whiteSpace=wrap;html=1;fontSize=12;fontStyle=1;fillColor=#e1d5e7;strokeColor=#9673a6;dashed=1;" vertex="1" parent="1">
          <mxGeometry x="40" y="330" width="120" height="140" as="geometry" />
        </mxCell>
        <mxCell id="AmV1oALEYDHzeJOovQCH-34" value="Entwicklungs-&lt;br&gt;prozess" style="rounded=1;whiteSpace=wrap;html=1;fontSize=12;fontStyle=1;fillColor=#f8cecc;strokeColor=#b85450;dashed=1;" vertex="1" parent="1">
          <mxGeometry x="40" y="200" width="120" height="80" as="geometry" />
        </mxCell>
      </root>
    </mxGraphModel>
  </diagram>
</mxfile>
